# xmcd
#
# Track frame offsets:
#	150
#	4412
#	19682
#	39217
#	50360
#	71517
#	92025
#	97320
#	118460
#	139132
#	159980
#	177970
#	197085
#	216420
#	235830
#
# Disc length: 3419 seconds
#
# Revision: 4
# Processed by: cddbd v1.5.1PL0 Copyright (c) Steve Scherf et al.
# Submitted via: audiograbber 1.83.01
#
DISCID=d40d590f
DTITLE=Total - Total
DYEAR=1995
DGENRE=R&B
TTITLE0=Intro
TTITLE1=Do you Know
TTITLE2=No One Else (feat. Da Brat)
TTITLE3=Whose Is It? (Interlude)
TTITLE4=Kissin' You
TTITLE5=Do You Think About Us?
TTITLE6=Definition Of A Bad Girl (Interlude)
TTITLE7=Can't You See (feat. The Notorious B.I.G.)
TTITLE8=Someone Like You
TTITLE9=Tell Me
TTITLE10=Love Is All We Need
TTITLE11=Don't Ever Change
TTITLE12=Spend Some Time
TTITLE13=When Boy Meets Girl
TTITLE14=No One Else (Puff Daddy Remix)
EXTD=
EXTT0=
EXTT1=
EXTT2=
EXTT3=
EXTT4=
EXTT5=
EXTT6=
EXTT7=
EXTT8=
EXTT9=
EXTT10=
EXTT11=
EXTT12=
EXTT13=
EXTT14=
PLAYORDER=
